<svg width="26" height="26" viewBox="0 0 26 26" fill="none" xmlns="http://www.w3.org/2000/svg">
<path d="M9.99975 0C15.5117 0 19.9997 4.488 19.9997 10C19.9997 12.395 19.1597 14.59 17.7497 16.313L25.7188 24.28L24.2797 25.72L16.3117 17.751C14.5322 19.2099 12.3009 20.005 9.99975 20C4.48775 20 -0.000253677 15.512 -0.000253677 10C-0.000253677 4.488 4.48775 0 9.99975 0ZM9.99975 2C5.56975 2 1.99975 5.57 1.99975 10C1.99975 14.43 5.56975 18 9.99975 18C14.4297 18 17.9997 14.43 17.9997 10C17.9997 5.57 14.4297 2 9.99975 2Z" fill="black"/>
</svg>
