<svg width="28" height="28" viewBox="0 0 28 28" fill="none" xmlns="http://www.w3.org/2000/svg">
<g clip-path="url(#clip0_8149_885)">
<path d="M8.23327 0C3.71382 0 0 3.70873 0 8.23327V19.7667C0 24.2862 3.70873 28 8.23327 28H19.7667C24.2862 28 28 24.2913 28 19.7667V8.23455C28 3.71382 24.2913 0 19.7667 0H8.23327ZM8.23327 2.54545H19.7667C20.5139 2.54445 21.254 2.69088 21.9445 2.97637C22.6351 3.26185 23.2625 3.68077 23.7909 4.20914C24.3192 4.7375 24.7381 5.36492 25.0236 6.05545C25.3091 6.74598 25.4555 7.48606 25.4545 8.23327V19.7667C25.4555 20.5139 25.3091 21.254 25.0236 21.9445C24.7381 22.6351 24.3192 23.2625 23.7909 23.7909C23.2625 24.3192 22.6351 24.7381 21.9445 25.0236C21.254 25.3091 20.5139 25.4555 19.7667 25.4545H8.23455C7.48722 25.4557 6.74701 25.3094 6.05633 25.024C5.36565 24.7386 4.73808 24.3197 4.20959 23.7913C3.68109 23.2629 3.26205 22.6355 2.97649 21.9448C2.69092 21.2542 2.54445 20.5141 2.54545 19.7667C2.54545 19.7667 2.54663 8.98187 2.54545 8.23455C2.54428 7.48722 2.69059 6.74701 2.976 6.05633C3.26141 5.36565 3.6803 4.73808 4.20868 4.20959C4.73706 3.68109 5.36454 3.26205 6.05515 2.97649C6.74577 2.69092 7.48595 2.54445 8.23327 2.54545ZM21.5167 5.33018C21.3651 5.32951 21.2149 5.35887 21.0747 5.41658C20.9345 5.47429 20.8071 5.5592 20.6999 5.66641C20.5927 5.77362 20.5077 5.901 20.45 6.04121C20.3923 6.18141 20.363 6.33166 20.3636 6.48327C20.3636 7.12473 20.8753 7.63636 21.5167 7.63636C21.6684 7.63721 21.8188 7.60796 21.9592 7.55033C22.0995 7.4927 22.2271 7.40781 22.3344 7.30059C22.4418 7.19336 22.5268 7.06592 22.5846 6.92563C22.6424 6.78535 22.6718 6.63499 22.6711 6.48327C22.6718 6.33155 22.6424 6.1812 22.5846 6.04091C22.5268 5.90062 22.4418 5.77318 22.3344 5.66596C22.2271 5.55873 22.0995 5.47385 21.9592 5.41621C21.8188 5.35858 21.6684 5.32934 21.5167 5.33018ZM14 6.36364C9.8 6.36364 6.36364 9.8 6.36364 14C6.36364 18.2 9.8 21.6364 14 21.6364C18.2 21.6364 21.6364 18.2 21.6364 14C21.6364 9.8 18.2 6.36364 14 6.36364ZM14 8.90909C16.8293 8.90909 19.0909 11.1707 19.0909 14C19.0909 16.8293 16.8293 19.0909 14 19.0909C11.1707 19.0909 8.90909 16.8293 8.90909 14C8.90909 11.1707 11.1707 8.90909 14 8.90909Z" fill="white"/>
</g>
<defs>
<clipPath id="clip0_8149_885">
<rect width="28" height="28" fill="white"/>
</clipPath>
</defs>
</svg>
