<svg width="28" height="22" viewBox="0 0 28 22" fill="none" xmlns="http://www.w3.org/2000/svg">
<g clip-path="url(#clip0_8149_887)">
<path d="M28 2.60975C26.9516 3.05836 25.8394 3.3522 24.7007 3.48144C25.8995 2.78756 26.7967 1.69633 27.2253 0.410799C26.0978 1.05666 24.865 1.51271 23.5795 1.75949C22.792 0.94571 21.7693 0.379785 20.6446 0.135299C19.5198 -0.109186 18.345 -0.0209199 17.2728 0.38862C16.2007 0.798161 15.2808 1.51003 14.6328 2.43166C13.9848 3.35329 13.6387 4.44204 13.6395 5.55635C13.6395 5.99275 13.6897 6.41563 13.7912 6.82046C11.5063 6.71176 9.2707 6.13891 7.23017 5.13924C5.18963 4.13958 3.38993 2.73553 1.94833 1.01861C1.43614 1.86606 1.16749 2.83039 1.17017 3.81184C1.17017 5.73677 2.18167 7.4373 3.72633 8.43303C2.81395 8.40504 1.9218 8.16607 1.12467 7.73613V7.80717C1.12388 9.08953 1.5825 10.3326 2.4226 11.3251C3.26269 12.3176 4.43242 12.9983 5.733 13.2516C4.88724 13.4757 3.99948 13.5089 3.13833 13.3485C3.50514 14.4517 4.2193 15.4166 5.18103 16.1085C6.14277 16.8003 7.30405 17.1845 8.50267 17.2074C7.31108 18.1114 5.94675 18.7794 4.48776 19.1732C3.02876 19.567 1.50375 19.6788 0 19.5022C2.62561 21.1354 5.68253 22.0026 8.80483 22C19.3725 22 25.1522 13.538 25.1522 6.19912C25.1522 5.96231 25.1428 5.71873 25.1335 5.48079C26.2565 4.69487 27.2269 3.72329 28 2.61088V2.60975Z" fill="white"/>
</g>
<defs>
<clipPath id="clip0_8149_887">
<rect width="28" height="22" fill="white"/>
</clipPath>
</defs>
</svg>
