<svg width="28" height="22" viewBox="0 0 28 22" fill="none" xmlns="http://www.w3.org/2000/svg">
<g clip-path="url(#clip0_8149_891)">
<path d="M14 0C9.94431 0 6.36031 0.429 4.17308 0.7568C2.36385 1.0274 0.904615 2.4189 0.571846 4.2625C0.290769 5.8311 0 8.1257 0 11C0 13.8743 0.290769 16.17 0.571846 17.7375C0.904615 19.5811 2.36385 20.977 4.17308 21.2443C6.37 21.5699 9.96585 22 14 22C18.0342 22 21.6311 21.571 23.8269 21.2432C25.6362 20.977 27.0954 19.5811 27.4282 17.7375C27.7092 16.1645 28 13.8655 28 11C28 8.1345 27.7135 5.8355 27.4282 4.2625C27.0954 2.4189 25.6362 1.0274 23.8269 0.7557C21.6397 0.4301 18.0546 0 14 0ZM14 2.2C17.9125 2.2 21.4082 2.6081 23.5243 2.9216C23.9641 2.98581 24.3729 3.18968 24.693 3.50436C25.0131 3.81904 25.2281 4.22858 25.3077 4.675C25.5683 6.127 25.8462 8.2797 25.8462 11C25.8462 13.7159 25.5683 15.873 25.3077 17.325C25.2295 17.772 25.0149 18.1824 24.6946 18.4973C24.3743 18.8122 23.9646 19.0156 23.5243 19.0784C21.3985 19.3919 17.8866 19.8 14 19.8C10.1123 19.8 6.59615 19.3919 4.47569 19.0784C4.03567 19.0148 3.62648 18.8112 3.30631 18.4964C2.98613 18.1816 2.77128 17.7717 2.69231 17.325C2.43169 15.873 2.15385 13.7247 2.15385 11C2.15385 8.272 2.43169 6.127 2.69231 4.675C2.77128 4.2283 2.98613 3.81841 3.30631 3.50362C3.62648 3.18883 4.03567 2.98517 4.47569 2.9216C6.58754 2.6081 10.0875 2.2 14 2.2ZM10.7692 4.7091V17.292L12.3846 16.3636L19.9231 11.9636L21.5385 11L19.9231 10.0375L12.3846 5.6375L10.7692 4.7091ZM12.9231 8.4909L17.1974 11L12.9231 13.5091V8.4909Z" fill="white"/>
</g>
<defs>
<clipPath id="clip0_8149_891">
<rect width="28" height="22" fill="white"/>
</clipPath>
</defs>
</svg>
